<svg width="108" height="125" viewBox="0 0 108 125" fill="none" xmlns="http://www.w3.org/2000/svg">
<g filter="url(#filter0_d_1_115)">
<path d="M67.9575 71.592H60.6615V81H50.5495V71.592H26.4215V64.616L47.5415 36.2H58.4215L38.8375 63.144H50.8695V54.76H60.6615V63.144H67.9575V71.592Z" fill="#FAFAFA"/>
<path d="M67.9575 71.592V72.592H68.9575V71.592H67.9575ZM60.6615 71.592V70.592H59.6615V71.592H60.6615ZM60.6615 81V82H61.6615V81H60.6615ZM50.5495 81H49.5495V82H50.5495V81ZM50.5495 71.592H51.5495V70.592H50.5495V71.592ZM26.4215 71.592H25.4215V72.592H26.4215V71.592ZM26.4215 64.616L25.6189 64.0195L25.4215 64.2851V64.616H26.4215ZM47.5415 36.2V35.2H47.0388L46.7389 35.6035L47.5415 36.2ZM58.4215 36.2L59.2304 36.7879L60.3846 35.2H58.4215V36.2ZM38.8375 63.144L38.0286 62.5561L36.8744 64.144H38.8375V63.144ZM50.8695 63.144V64.144H51.8695V63.144H50.8695ZM50.8695 54.76V53.76H49.8695V54.76H50.8695ZM60.6615 54.76H61.6615V53.76H60.6615V54.76ZM60.6615 63.144H59.6615V64.144H60.6615V63.144ZM67.9575 63.144H68.9575V62.144H67.9575V63.144ZM67.9575 70.592H60.6615V72.592H67.9575V70.592ZM59.6615 71.592V81H61.6615V71.592H59.6615ZM60.6615 80H50.5495V82H60.6615V80ZM51.5495 81V71.592H49.5495V81H51.5495ZM50.5495 70.592H26.4215V72.592H50.5495V70.592ZM27.4215 71.592V64.616H25.4215V71.592H27.4215ZM27.2241 65.2125L48.3441 36.7965L46.7389 35.6035L25.6189 64.0195L27.2241 65.2125ZM47.5415 37.2H58.4215V35.2H47.5415V37.2ZM57.6126 35.6121L38.0286 62.5561L39.6464 63.7319L59.2304 36.7879L57.6126 35.6121ZM38.8375 64.144H50.8695V62.144H38.8375V64.144ZM51.8695 63.144V54.76H49.8695V63.144H51.8695ZM50.8695 55.76H60.6615V53.76H50.8695V55.76ZM59.6615 54.76V63.144H61.6615V54.76H59.6615ZM60.6615 64.144H67.9575V62.144H60.6615V64.144ZM66.9575 63.144V71.592H68.9575V63.144H66.9575Z" fill="#E2A9FF"/>
</g>
<defs>
<filter id="filter0_d_1_115" x="-13.5785" y="0.199951" width="121.536" height="124.8" filterUnits="userSpaceOnUse" color-interpolation-filters="sRGB">
<feFlood flood-opacity="0" result="BackgroundImageFix"/>
<feColorMatrix in="SourceAlpha" type="matrix" values="0 0 0 0 0 0 0 0 0 0 0 0 0 0 0 0 0 0 127 0" result="hardAlpha"/>
<feOffset dy="4"/>
<feGaussianBlur stdDeviation="20"/>
<feComposite in2="hardAlpha" operator="out"/>
<feColorMatrix type="matrix" values="0 0 0 0 0.856785 0 0 0 0 0.580156 0 0 0 0 0.9875 0 0 0 1 0"/>
<feBlend mode="normal" in2="BackgroundImageFix" result="effect1_dropShadow_1_115"/>
<feBlend mode="normal" in="SourceGraphic" in2="effect1_dropShadow_1_115" result="shape"/>
</filter>
</defs>
</svg>
