<svg width="108" height="126" viewBox="0 0 108 126" fill="none" xmlns="http://www.w3.org/2000/svg">
<g filter="url(#filter0_d_1_149)">
<path d="M67.1438 71.952V82H32.2638V74.064L49.0318 58.384C50.6531 56.848 51.7411 55.5467 52.2958 54.48C52.8504 53.3707 53.1278 52.2613 53.1278 51.152C53.1278 49.7013 52.6371 48.5707 51.6558 47.76C50.6744 46.9493 49.2451 46.544 47.3678 46.544C45.7038 46.544 44.1678 46.928 42.7598 47.696C41.3944 48.4213 40.2638 49.488 39.3678 50.896L29.9597 45.648C31.7091 42.7467 34.1624 40.464 37.3198 38.8C40.4771 37.136 44.2104 36.304 48.5198 36.304C51.9331 36.304 54.9411 36.8587 57.5438 37.968C60.1891 39.0773 62.2371 40.6773 63.6878 42.768C65.1811 44.816 65.9278 47.2053 65.9278 49.936C65.9278 52.368 65.3944 54.672 64.3278 56.848C63.3038 58.9813 61.2984 61.4133 58.3118 64.144L49.8638 71.952H67.1438Z" fill="#FAFAFA"/>
<path d="M67.1438 71.952H68.1438V70.952H67.1438V71.952ZM67.1438 82V83H68.1438V82H67.1438ZM32.2638 82H31.2638V83H32.2638V82ZM32.2638 74.064L31.5807 73.3336L31.2638 73.63V74.064H32.2638ZM49.0318 58.384L49.7148 59.1144L49.7195 59.11L49.0318 58.384ZM52.2958 54.48L53.183 54.9414L53.1866 54.9343L53.1902 54.9272L52.2958 54.48ZM42.7598 47.696L43.2289 48.5792L43.2386 48.5739L42.7598 47.696ZM39.3678 50.896L38.8806 51.7693L39.7048 52.229L40.2114 51.4329L39.3678 50.896ZM29.9598 45.648L29.1034 45.1317L28.5693 46.0174L29.4726 46.5213L29.9598 45.648ZM37.3198 38.8L37.786 39.6847H37.786L37.3198 38.8ZM57.5438 37.968L57.1516 38.8879L57.157 38.8902L57.5438 37.968ZM63.6878 42.768L62.8662 43.3381L62.8728 43.3477L62.8797 43.3572L63.6878 42.768ZM64.3278 56.848L63.4298 56.4078L63.4262 56.4153L64.3278 56.848ZM58.3118 64.144L57.637 63.406L57.633 63.4096L58.3118 64.144ZM49.8638 71.952L49.185 71.2176L47.3085 72.952H49.8638V71.952ZM66.1438 71.952V82H68.1438V71.952H66.1438ZM67.1438 81H32.2638V83H67.1438V81ZM33.2638 82V74.064H31.2638V82H33.2638ZM32.9468 74.7944L49.7148 59.1144L48.3487 57.6536L31.5807 73.3336L32.9468 74.7944ZM49.7195 59.11C51.3647 57.5513 52.5503 56.158 53.183 54.9414L51.4085 54.0186C50.9319 54.9353 49.9414 56.1447 48.344 57.658L49.7195 59.11ZM53.1902 54.9272C53.806 53.6956 54.1278 52.4341 54.1278 51.152H52.1278C52.1278 52.0886 51.8948 53.0457 51.4013 54.0328L53.1902 54.9272ZM54.1278 51.152C54.1278 49.4498 53.5377 48.0176 52.2926 46.989L51.0189 48.531C51.7365 49.1238 52.1278 49.9528 52.1278 51.152H54.1278ZM52.2926 46.989C51.0641 45.9741 49.3707 45.544 47.3678 45.544V47.544C49.1195 47.544 50.2848 47.9245 51.0189 48.531L52.2926 46.989ZM47.3678 45.544C45.543 45.544 43.8414 45.9669 42.2809 46.8181L43.2386 48.5739C44.4941 47.8891 45.8646 47.544 47.3678 47.544V45.544ZM42.2906 46.8129C40.7606 47.6257 39.5053 48.8172 38.5241 50.3591L40.2114 51.4329C41.0222 50.1588 42.0283 49.2169 43.2289 48.5791L42.2906 46.8129ZM39.8549 50.0227L30.4469 44.7747L29.4726 46.5213L38.8806 51.7693L39.8549 50.0227ZM30.8161 46.1643C32.4663 43.4275 34.7808 41.2685 37.786 39.6847L36.8535 37.9153C33.544 39.6595 30.9519 42.0658 29.1034 45.1317L30.8161 46.1643ZM37.786 39.6847C40.7727 38.1106 44.3395 37.304 48.5198 37.304V35.304C44.0814 35.304 40.1815 36.1614 36.8535 37.9153L37.786 39.6847ZM48.5198 37.304C51.8255 37.304 54.6958 37.8411 57.1517 38.8879L57.9359 37.0481C55.1864 35.8762 52.0406 35.304 48.5198 35.304V37.304ZM57.157 38.8902C59.6498 39.9356 61.5374 41.4231 62.8662 43.3381L64.5093 42.1979C62.9368 39.9316 60.7283 38.2191 57.9305 37.0458L57.157 38.8902ZM62.8797 43.3572C64.2385 45.2206 64.9278 47.3998 64.9278 49.936H66.9278C66.9278 47.0109 66.1237 44.4114 64.4958 42.1788L62.8797 43.3572ZM64.9278 49.936C64.9278 52.216 64.4291 54.3694 63.4298 56.4078L65.2257 57.2882C66.3597 54.9746 66.9278 52.52 66.9278 49.936H64.9278ZM63.4262 56.4153C62.4835 58.3793 60.5867 60.7091 57.637 63.406L58.9865 64.882C62.0101 62.1176 64.124 59.5833 65.2293 57.2807L63.4262 56.4153ZM57.633 63.4096L49.185 71.2176L50.5425 72.6864L58.9905 64.8784L57.633 63.4096ZM49.8638 72.952H67.1438V70.952H49.8638V72.952Z" fill="#E2A9FF"/>
</g>
<defs>
<filter id="filter0_d_1_149" x="-10.0402" y="0.303955" width="117.184" height="125.696" filterUnits="userSpaceOnUse" color-interpolation-filters="sRGB">
<feFlood flood-opacity="0" result="BackgroundImageFix"/>
<feColorMatrix in="SourceAlpha" type="matrix" values="0 0 0 0 0 0 0 0 0 0 0 0 0 0 0 0 0 0 127 0" result="hardAlpha"/>
<feOffset dy="4"/>
<feGaussianBlur stdDeviation="20"/>
<feComposite in2="hardAlpha" operator="out"/>
<feColorMatrix type="matrix" values="0 0 0 0 0.856785 0 0 0 0 0.580156 0 0 0 0 0.9875 0 0 0 1 0"/>
<feBlend mode="normal" in2="BackgroundImageFix" result="effect1_dropShadow_1_149"/>
<feBlend mode="normal" in="SourceGraphic" in2="effect1_dropShadow_1_149" result="shape"/>
</filter>
</defs>
</svg>
