<svg width="98" height="125" viewBox="0 0 98 125" fill="none" xmlns="http://www.w3.org/2000/svg">
<g filter="url(#filter0_d_1_148)">
<path d="M57.9073 36.2V81H45.2353V45.992H36.9153V36.2H57.9073Z" fill="#FAFAFA"/>
<path d="M57.9073 36.2H58.9073V35.2H57.9073V36.2ZM57.9073 81V82H58.9073V81H57.9073ZM45.2353 81H44.2353V82H45.2353V81ZM45.2353 45.992H46.2353V44.992H45.2353V45.992ZM36.9153 45.992H35.9153V46.992H36.9153V45.992ZM36.9153 36.2V35.2H35.9153V36.2H36.9153ZM56.9073 36.2V81H58.9073V36.2H56.9073ZM57.9073 80H45.2353V82H57.9073V80ZM46.2353 81V45.992H44.2353V81H46.2353ZM45.2353 44.992H36.9153V46.992H45.2353V44.992ZM37.9153 45.992V36.2H35.9153V45.992H37.9153ZM36.9153 37.2H57.9073V35.2H36.9153V37.2Z" fill="#E2A9FF"/>
</g>
<defs>
<filter id="filter0_d_1_148" x="-3.08478" y="0.199951" width="100.992" height="124.8" filterUnits="userSpaceOnUse" color-interpolation-filters="sRGB">
<feFlood flood-opacity="0" result="BackgroundImageFix"/>
<feColorMatrix in="SourceAlpha" type="matrix" values="0 0 0 0 0 0 0 0 0 0 0 0 0 0 0 0 0 0 127 0" result="hardAlpha"/>
<feOffset dy="4"/>
<feGaussianBlur stdDeviation="20"/>
<feComposite in2="hardAlpha" operator="out"/>
<feColorMatrix type="matrix" values="0 0 0 0 0.856785 0 0 0 0 0.580156 0 0 0 0 0.9875 0 0 0 1 0"/>
<feBlend mode="normal" in2="BackgroundImageFix" result="effect1_dropShadow_1_148"/>
<feBlend mode="normal" in="SourceGraphic" in2="effect1_dropShadow_1_148" result="shape"/>
</filter>
</defs>
</svg>
