<svg width="107" height="126" viewBox="0 0 107 126" fill="none" xmlns="http://www.w3.org/2000/svg">
<g filter="url(#filter0_d_1_150)">
<path d="M55.3708 54.12C59.0828 54.888 61.9201 56.424 63.8828 58.728C65.8881 60.9893 66.8908 63.7413 66.8908 66.984C66.8908 69.6293 66.1654 72.0827 64.7148 74.344C63.3068 76.6053 61.1308 78.44 58.1868 79.848C55.2854 81.2133 51.6801 81.896 47.3708 81.896C44.2134 81.896 41.0774 81.512 37.9628 80.744C34.8908 79.976 32.2241 78.888 29.9627 77.48L34.5708 67.944C36.3201 69.1387 38.2828 70.056 40.4588 70.696C42.6774 71.336 44.8534 71.656 46.9868 71.656C49.1628 71.656 50.8908 71.2507 52.1708 70.44C53.4508 69.6293 54.0908 68.4773 54.0908 66.984C54.0908 64.0827 51.8081 62.632 47.2428 62.632H41.9308V54.632L49.9308 45.992H32.2668V36.2H64.6508V44.136L55.3708 54.12Z" fill="#FAFAFA"/>
<path d="M55.3708 54.12L54.6383 53.4392L53.4296 54.7396L55.1681 55.0993L55.3708 54.12ZM63.8828 58.728L63.1215 59.3765L63.128 59.384L63.1346 59.3915L63.8828 58.728ZM64.7148 74.344L63.873 73.804L63.8659 73.8154L64.7148 74.344ZM58.1868 79.848L58.6126 80.7528L58.6182 80.7501L58.1868 79.848ZM37.9628 80.744L37.7202 81.7141L37.7233 81.7149L37.9628 80.744ZM29.9628 77.48L29.0624 77.0449L28.6714 77.854L29.4342 78.3289L29.9628 77.48ZM34.5708 67.944L35.1347 67.1182L34.1757 66.4632L33.6704 67.5089L34.5708 67.944ZM40.4588 70.696L40.1766 71.6554L40.1816 71.6568L40.4588 70.696ZM52.1708 70.44L52.7058 71.2848V71.2848L52.1708 70.44ZM41.9308 62.632H40.9308V63.632H41.9308V62.632ZM41.9308 54.632L41.197 53.9526L40.9308 54.2401V54.632H41.9308ZM49.9308 45.992L50.6645 46.6714L52.2195 44.992H49.9308V45.992ZM32.2668 45.992H31.2668V46.992H32.2668V45.992ZM32.2668 36.2V35.2H31.2668V36.2H32.2668ZM64.6508 36.2H65.6508V35.2H64.6508V36.2ZM64.6508 44.136L65.3832 44.8168L65.6508 44.529V44.136H64.6508ZM55.1681 55.0993C58.7184 55.8338 61.3362 57.2807 63.1215 59.3765L64.644 58.0795C62.5039 55.5673 59.4472 53.9422 55.5734 53.1407L55.1681 55.0993ZM63.1346 59.3915C64.9653 61.4559 65.8908 63.9665 65.8908 66.984H67.8908C67.8908 63.5162 66.8109 60.5228 64.6309 58.0645L63.1346 59.3915ZM65.8908 66.984C65.8908 69.4348 65.2221 71.7012 63.8731 73.804L65.5564 74.884C67.1088 72.4642 67.8908 69.8239 67.8908 66.984H65.8908ZM63.8659 73.8154C62.5791 75.882 60.5662 77.6015 57.7553 78.9459L58.6182 80.7501C61.6953 79.2785 64.0344 77.3287 65.5636 74.8726L63.8659 73.8154ZM57.761 78.9432C55.0304 80.2282 51.5809 80.896 47.3708 80.896V82.896C51.7792 82.896 55.5405 82.1985 58.6125 80.7528L57.761 78.9432ZM47.3708 80.896C44.2954 80.896 41.2398 80.5221 38.2022 79.7731L37.7233 81.7149C40.9151 82.5019 44.1314 82.896 47.3708 82.896V80.896ZM38.2053 79.7739C35.2158 79.0265 32.6493 77.9748 30.4913 76.6311L29.4342 78.3289C31.7988 79.8012 34.5657 80.9255 37.7202 81.7141L38.2053 79.7739ZM30.8631 77.9151L35.4711 68.3791L33.6704 67.5089L29.0624 77.0449L30.8631 77.9151ZM34.0068 68.7698C35.8484 70.0275 37.9073 70.9879 40.1766 71.6554L40.7409 69.7366C38.6582 69.1241 36.7918 68.2498 35.1347 67.1182L34.0068 68.7698ZM40.1816 71.6568C42.483 72.3207 44.7523 72.656 46.9868 72.656V70.656C44.9546 70.656 42.8719 70.3513 40.7359 69.7352L40.1816 71.6568ZM46.9868 72.656C49.2738 72.656 51.2104 72.2319 52.7058 71.2848L51.6357 69.5952C50.5711 70.2694 49.0517 70.656 46.9868 70.656V72.656ZM52.7058 71.2848C54.2702 70.2941 55.0908 68.826 55.0908 66.984H53.0908C53.0908 68.1286 52.6313 68.9646 51.6357 69.5952L52.7058 71.2848ZM55.0908 66.984C55.0908 65.2211 54.3695 63.8003 52.9151 62.876C51.5376 62.0006 49.5991 61.632 47.2428 61.632V63.632C49.4517 63.632 50.9373 63.9888 51.8424 64.564C52.6707 65.0904 53.0908 65.8456 53.0908 66.984H55.0908ZM47.2428 61.632H41.9308V63.632H47.2428V61.632ZM42.9308 62.632V54.632H40.9308V62.632H42.9308ZM42.6645 55.3114L50.6645 46.6714L49.197 45.3126L41.197 53.9526L42.6645 55.3114ZM49.9308 44.992H32.2668V46.992H49.9308V44.992ZM33.2668 45.992V36.2H31.2668V45.992H33.2668ZM32.2668 37.2H64.6508V35.2H32.2668V37.2ZM63.6508 36.2V44.136H65.6508V36.2H63.6508ZM63.9183 43.4552L54.6383 53.4392L56.1032 54.8008L65.3832 44.8168L63.9183 43.4552Z" fill="#E2A9FF"/>
</g>
<defs>
<filter id="filter0_d_1_150" x="-10.0372" y="0.199951" width="116.928" height="125.696" filterUnits="userSpaceOnUse" color-interpolation-filters="sRGB">
<feFlood flood-opacity="0" result="BackgroundImageFix"/>
<feColorMatrix in="SourceAlpha" type="matrix" values="0 0 0 0 0 0 0 0 0 0 0 0 0 0 0 0 0 0 127 0" result="hardAlpha"/>
<feOffset dy="4"/>
<feGaussianBlur stdDeviation="20"/>
<feComposite in2="hardAlpha" operator="out"/>
<feColorMatrix type="matrix" values="0 0 0 0 0.856785 0 0 0 0 0.580156 0 0 0 0 0.9875 0 0 0 1 0"/>
<feBlend mode="normal" in2="BackgroundImageFix" result="effect1_dropShadow_1_150"/>
<feBlend mode="normal" in="SourceGraphic" in2="effect1_dropShadow_1_150" result="shape"/>
</filter>
</defs>
</svg>
